<svg width="100" height="100" viewBox="0 0 100 100" fill="none" xmlns="http://www.w3.org/2000/svg">
<rect width="100" height="100" rx="16" fill="url(#paint0_radial_70_170)"/>
<path d="M66.4318 14V67.3944C66.4318 69.3075 66.9406 70.8106 67.9581 71.9037C68.9757 72.9286 69.9439 73.441 72.1825 73.441C73.8105 73.441 75.6421 73.3385 77.6772 73.1335L79 78.7702C76.8971 79.0435 73.9801 80 71.8772 80C67.807 80 64.5509 78.9752 62.1088 76.9255C59.6667 74.8758 58.4456 71.5279 58.4456 66.882V20.559L50 19.2267L50.814 14H66.4318Z" fill="white"/>
<path d="M41.3188 76.5674C41.3188 81.5818 39.9086 83.8865 37.286 86.2907C34.6634 88.7636 26.7602 90 26.7602 90L25.6454 83.4057C25.6454 83.4057 30.1463 82.6844 31.2804 81.2419C32.3437 79.8681 32.9741 77.9546 32.9741 75.6191L41.3188 76.5674Z" fill="white"/>
<path d="M25 40.2016V33.6072H32.9741V27.8372C32.9741 22.8228 34.2854 19.1135 36.908 16.7093C39.5306 14.2364 43.0393 13 47.4339 13C49.2768 13 51.1552 13.103 53.069 13.3091C54.9828 13.4465 56.932 13.6869 58.9167 14.0304L62 20.5216C57.818 19.9034 50.9586 19.5943 48.5487 19.5943C45.9261 19.5943 44.0477 20.3156 42.9136 21.7581C41.8504 23.1319 41.3188 24.9865 41.3188 27.322V33.6072H49.8132V40.2016H41.3188V76.5674L32.9741 75.6191V40.3046L25 40.2016Z" fill="white"/>
<defs>
<radialGradient id="paint0_radial_70_170" cx="0" cy="0" r="1" gradientUnits="userSpaceOnUse" gradientTransform="translate(24.5 6.5) rotate(68.067) scale(202.13)">
<stop stop-color="#06B6D4"/>
<stop offset="1" stop-color="#64748B"/>
</radialGradient>
</defs>
</svg>
