<svg width="100" height="100" viewBox="0 0 100 100" fill="none" xmlns="http://www.w3.org/2000/svg">
<rect width="100" height="100" rx="20" fill="url(#paint0_radial_16_102)"/>
<path fill-rule="evenodd" clip-rule="evenodd" d="M22.3476 61.2C20.1337 61.2 18.0104 60.315 16.445 58.7397C14.8795 57.1644 14 55.0278 14 52.8L14 47.2C14 44.9722 14.8795 42.8356 16.445 41.2603C18.0104 39.685 20.1337 38.8 22.3476 38.8L27.9127 38.8C30.1266 38.8 32.2498 39.685 33.8153 41.2603C35.3808 42.8356 36.2603 44.9722 36.2603 47.2L43.8253 47.2L43.8253 33.2C43.8253 32.4574 44.1185 31.7452 44.6403 31.2201C45.1622 30.695 45.8699 30.4 46.6079 30.4L52.1729 30.4C52.9109 30.4 53.6187 30.695 54.1405 31.2201C54.6623 31.7452 54.9555 32.4574 54.9555 33.2C54.9555 33.9426 54.6623 34.6548 54.1405 35.1799C53.6187 35.705 52.9109 36 52.1729 36L49.3904 36L49.3904 64L52.1729 64C52.9109 64 53.6187 64.295 54.1405 64.8201C54.6623 65.3452 54.9555 66.0574 54.9555 66.8C54.9555 67.5426 54.6623 68.2548 54.1405 68.7799C53.6187 69.305 52.9109 69.6 52.1729 69.6L46.6079 69.6C45.8699 69.6 45.1622 69.305 44.6403 68.7799C44.1185 68.2548 43.8253 67.5426 43.8253 66.8L43.8253 52.8L36.2603 52.8C36.2603 55.0278 35.3808 57.1644 33.8153 58.7397C32.2498 60.315 30.1266 61.2 27.9127 61.2L22.3476 61.2ZM67.0873 78C64.8734 78 62.7502 77.115 61.1847 75.5397C59.6192 73.9644 58.7397 71.8278 58.7397 69.6L58.7397 64C58.7397 61.7722 59.6192 59.6356 61.1847 58.0603C62.7502 56.485 64.8734 55.6 67.0873 55.6L72.6524 55.6C74.8663 55.6 76.9896 56.485 78.555 58.0603C80.1205 59.6356 81 61.7722 81 64L81 69.6C81 71.8278 80.1205 73.9644 78.555 75.5397C76.9896 77.115 74.8663 78 72.6524 78L67.0873 78ZM67.0873 44.4C64.8734 44.4 62.7502 43.515 61.1847 41.9397C59.6192 40.3644 58.7397 38.2278 58.7397 36L58.7397 30.4C58.7397 28.1722 59.6192 26.0356 61.1847 24.4603C62.7502 22.885 64.8734 22 67.0873 22L72.6524 22C74.8663 22 76.9896 22.885 78.555 24.4603C80.1205 26.0356 81 28.1722 81 30.4L81 36C81 38.2278 80.1205 40.3644 78.555 41.9397C76.9896 43.515 74.8663 44.4 72.6524 44.4L67.0873 44.4Z" fill="white"/>
<defs>
<radialGradient id="paint0_radial_16_102" cx="0" cy="0" r="1" gradientUnits="userSpaceOnUse" gradientTransform="translate(24.5 6.5) rotate(68.067) scale(202.13)">
<stop stop-color="#06B6D4"/>
<stop offset="1" stop-color="#64748B"/>
</radialGradient>
</defs>
</svg>
